<?xml version="1.0" standalone="no"?>
<!DOCTYPE svg PUBLIC "-//W3C//DTD SVG 20010904//EN"
 "http://www.w3.org/TR/2001/REC-SVG-20010904/DTD/svg10.dtd">
<svg version="1.0" xmlns="http://www.w3.org/2000/svg"
 width="320.000000pt" height="320.000000pt" viewBox="0 0 320.000000 320.000000"
 preserveAspectRatio="xMidYMid meet">
<metadata>
Created by potrace 1.14, written by Peter Selinger 2001-2017
</metadata>
<g transform="translate(0.000000,320.000000) scale(0.100000,-0.100000)"
fill="#000000" stroke="none">
<path d="M438 3174 c-4 -3 -61 -6 -127 -5 -67 0 -121 -2 -121 -6 0 -3 33 -51
73 -106 39 -54 77 -107 82 -116 6 -9 12 -18 16 -21 3 -3 21 -27 40 -55 18 -27
36 -52 40 -55 3 -3 21 -27 40 -55 18 -27 36 -52 39 -55 11 -10 170 -230 170
-235 0 -5 25 -37 48 -60 6 -8 12 -18 12 -24 0 -6 5 -11 10 -11 6 0 10 -5 10
-11 0 -7 8 -19 18 -28 9 -9 23 -28 31 -42 7 -15 24 -38 37 -53 14 -14 22 -26
20 -26 -5 0 8 -18 39 -54 6 -6 26 -34 45 -61 19 -28 38 -54 43 -60 4 -5 53
-73 108 -150 55 -77 105 -141 110 -143 5 -2 9 -13 9 -23 0 -11 4 -17 10 -14
23 15 -6 -36 -60 -102 -6 -7 -10 -15 -10 -18 0 -4 -7 -13 -14 -21 -8 -8 -53
-67 -100 -132 -47 -64 -135 -184 -196 -267 -60 -82 -110 -153 -110 -158 0 -4
-4 -5 -10 -2 -6 3 -10 -1 -10 -9 0 -8 -11 -28 -25 -43 -38 -43 -45 -52 -45
-57 0 -3 -53 -76 -118 -163 -65 -87 -129 -174 -142 -193 -13 -19 -27 -37 -30
-40 -3 -3 -26 -34 -52 -70 -26 -36 -54 -74 -62 -85 -8 -11 -40 -54 -70 -95
-30 -41 -62 -83 -70 -93 -9 -9 -16 -20 -16 -23 0 -3 -16 -26 -36 -50 l-36 -44
43 -1 c388 -4 771 1 783 10 7 6 30 39 51 74 21 34 41 64 44 67 13 11 121 180
121 189 0 5 3 11 8 13 4 1 27 35 52 73 24 39 47 72 50 75 9 9 84 125 82 128
-2 1 3 8 9 15 6 6 84 124 174 260 l164 249 33 -57 c18 -31 37 -65 43 -76 5
-10 13 -19 17 -19 5 0 8 -5 8 -11 0 -6 14 -30 30 -54 16 -24 30 -48 30 -54 0
-6 3 -11 8 -11 4 0 12 -10 18 -23 6 -12 35 -60 64 -107 29 -47 60 -98 69 -115
9 -16 19 -32 22 -35 3 -3 19 -27 35 -53 16 -27 38 -63 49 -81 11 -17 42 -67
68 -111 27 -44 61 -99 75 -122 15 -23 51 -83 81 -133 49 -82 57 -90 85 -91 38
0 764 0 789 1 20 0 22 16 5 35 -27 30 -38 44 -38 50 0 3 -5 11 -10 18 -42 49
-54 65 -66 90 -8 15 -19 27 -24 27 -6 0 -10 7 -10 15 0 8 -5 15 -11 15 -5 0
-7 5 -4 10 3 6 2 10 -2 10 -5 0 -17 13 -26 30 -10 16 -23 35 -30 42 -7 7 -26
34 -42 60 -17 27 -33 48 -37 48 -5 0 -8 5 -8 10 0 6 -11 23 -25 38 -14 15 -25
32 -25 39 0 6 -4 13 -8 15 -4 2 -23 26 -42 53 -19 28 -39 53 -45 57 -5 4 -7 8
-2 8 4 0 -1 8 -10 19 -10 10 -45 58 -78 106 -33 48 -67 95 -75 104 -8 10 -19
25 -25 33 -20 32 -116 167 -130 185 -5 6 -20 27 -33 45 -12 18 -45 64 -72 101
-28 37 -50 72 -50 77 0 6 -4 10 -8 10 -5 0 -17 16 -28 35 -10 19 -22 35 -26
35 -3 0 -9 8 -12 18 -4 10 -14 27 -24 38 -23 25 -133 181 -133 190 -1 4 3 10
9 13 5 3 33 40 62 81 30 41 57 77 60 80 3 3 19 25 35 50 38 57 45 67 72 96 12
13 20 24 17 24 -3 0 10 20 28 44 18 24 51 70 73 101 22 32 45 63 50 69 6 6 35
46 65 89 29 42 57 77 62 77 4 0 8 5 8 10 0 10 19 39 90 134 14 19 33 45 42 58
56 79 215 298 237 327 14 18 33 43 41 56 39 58 55 80 60 85 3 3 16 19 28 37
l23 32 -36 -3 c-19 -1 -35 1 -35 6 0 4 -7 5 -15 2 -22 -9 -105 -10 -105 -2 0
4 -7 5 -15 2 -22 -9 -105 -10 -105 -2 0 4 -7 5 -15 2 -22 -9 -105 -10 -105 -2
0 4 -7 5 -15 2 -22 -9 -105 -10 -105 -2 0 4 -7 5 -15 2 -22 -9 -105 -10 -105
-2 0 4 -11 3 -24 -2 -17 -6 -26 -5 -30 3 -3 8 -5 8 -5 1 -1 -7 -15 -10 -35 -8
-29 4 -36 0 -53 -28 -11 -18 -20 -37 -20 -42 -1 -5 -5 -12 -10 -15 -11 -8 -43
-58 -44 -68 0 -5 -7 -12 -15 -16 -8 -4 -14 -15 -14 -22 0 -8 -5 -15 -11 -15
-5 0 -8 -4 -5 -9 4 -5 3 -11 -1 -13 -8 -3 -57 -75 -78 -113 -20 -38 -90 -140
-97 -143 -5 -2 -8 -8 -8 -12 0 -8 -66 -117 -87 -145 -5 -5 -35 -53 -67 -105
-33 -52 -62 -97 -65 -100 -8 -7 -28 -39 -47 -77 -9 -18 -21 -33 -26 -33 -5 0
-6 -4 -3 -10 3 -5 4 -10 1 -10 -4 0 -90 131 -91 140 -1 4 -30 50 -102 161 -13
19 -23 38 -23 42 0 5 -5 13 -10 20 -6 7 -26 37 -45 67 -19 30 -38 60 -42 66
-8 10 -19 28 -45 77 -7 12 -15 24 -18 27 -6 6 -87 136 -110 177 -8 15 -20 33
-27 40 -6 7 -15 22 -18 33 -3 11 -11 20 -16 20 -5 0 -9 4 -9 9 0 6 -12 30 -27
56 -27 44 -30 46 -70 43 -24 -2 -43 0 -43 4 0 4 -7 5 -15 2 -22 -9 -105 -10
-105 -2 0 4 -7 5 -15 2 -22 -9 -105 -10 -105 -2 0 4 -7 5 -15 2 -22 -9 -105
-10 -105 -2 0 4 -7 5 -15 2 -23 -9 -105 -10 -108 -1 -1 5 -5 5 -9 1z m1208
-1012 c-5 -8 -7 -67 -5 -127 1 -16 1 -52 0 -80 0 -27 0 -63 0 -80 1 -16 1 -52
0 -80 -2 -96 -2 -251 0 -277 1 -7 1 -38 0 -68 -1 -30 0 -67 2 -83 2 -15 1 -30
-4 -32 -4 -3 -4 -18 0 -33 4 -15 4 -42 1 -61 l-5 -35 -26 35 c-37 49 -149 228
-149 239 0 4 -4 10 -8 12 -4 2 -30 40 -57 86 -26 46 -52 85 -57 88 -16 10 -6
32 71 154 44 69 104 162 133 208 29 46 58 91 63 100 22 36 27 42 36 42 6 0 8
-4 5 -8z"/>
</g>
</svg>
